<svg id="Contours" xmlns="http://www.w3.org/2000/svg" viewBox="0 0 2025.9 2026.28"><defs><style>.cls-1{fill:#fff;}</style></defs><rect class="cls-1" y="0.39" width="2025.89" height="2025.89" rx="434.49"/><path d="M1139.75,1202.27l-13.43,25.06c-2.42,4.52.55,10.4,5,13s9.82,2.65,14.94,2.68l85.62.6c4.08,0,8.38,0,11.92-2,6.86-3.92,7.93-13.21,8-21.1a561.93,561.93,0,0,0-26.41-178Q1182.57,1122.36,1139.75,1202.27Z" transform="translate(-160.24 -158.72)"/><path d="M2125.36,1430.44c-1.19,5.62-2.62,11.67-7,15.39s-10.56,4.16-16.29,4.39q-48,1.89-96.09-.17c-12.38-.53-29.17-6.66-26.35-18.72q40.39-172.69,80.77-345.4c2.69-11.51,5-24.79-2.16-34.16L1885.41,1407c-8.12,16.67-17.75,34.79-35.09,41.37-8.24,3.13-17.28,3.21-26.1,3.25l-57.25.23c-20.21.08-47.5-6.56-46.86-26.76a1653.14,1653.14,0,0,0-27.91-359q-31.8,181.73-74,361.42c-1.42,6-3,12.38-7.49,16.66-5.44,5.22-13.65,6-21.18,6.37a650.31,650.31,0,0,1-90.24-1.92c-4.66-.43-9.93-1.25-12.56-5.11-2.43-3.57-1.64-8.33-.76-12.55l98.25-470c4.1-19.58,13.56-43.81,33.55-43.8l188.51.11c4.62,0,9.51.08,13.41,2.54,6.49,4.11,7.67,12.92,8.2,20.59q10.77,156.17,21.55,312.34,69.54-158.57,139.07-317.14c7.2-16.42,29.12-18.79,47-18.71l150.62.61V593.21c0-240-194.53-434.49-434.5-434.49H594.75c-240,0-434.49,194.53-434.49,434.49v787.64a4205.38,4205.38,0,0,0,455.81-322.2c63.87-51.84,129.17-109.91,153.31-188.54,11.13-36.25,11.67-78.67-11.14-109-22.3-29.59-63.42-41.15-99.8-34.12s-68.07,30.15-92.17,58.29c-19.09,22.31-34.93,48.66-60.22,63.58-27.94,16.48-62.34,16-94.77,15.11l-179.89-5.12c-15.65-.44-36-5.06-37.35-20.66-.32-3.9.77-7.76,1.91-11.49C236.7,693.06,352.44,590.49,483.74,542.63s276.32-46.28,413.73-20.87c37.25,6.89,74.73,15.67,108,33.81,108.8,59.32,143.53,207.61,107.18,326.07s-127,211.85-221.05,292.59a2318.17,2318.17,0,0,1-424.76,289.58c-7.46,9.86,10.19,19.18,22.56,19.18l459.15-.07c33.88,0,43.06,48.91,30.26,80.27s-36.55,62.48-28.35,95.34c4.24,17-8.16,34.65-23.93,42.33s-34,7.84-51.55,7.84l-714.7-.12v41.54c0,240,194.52,434.49,434.49,434.49h1156.9c240,0,434.5-194.53,434.5-434.49V1141.65Q2155.75,1286,2125.36,1430.44Zm-675.59,13.27c-3.22,5.28-10.42,6.08-16.59,6.28q-55.92,1.82-111.87.65c-15.16-.31-32.32-1.73-41.86-13.53-10.7-13.23-6.48-32.41-5.41-49.39s-6.47-38.76-23.48-38.9l-168-1.32c-20.42-.16-35.77,18.63-44.4,37.14s-14.51,39.44-30,52.81c-19.44,16.85-47.9,16.64-73.6,15.52-27-1.18-54.39-2.43-79.88-11.31q149.41-246.9,298.81-493.8c8.67-14.32,20.26-30.39,37-30.45l131.81-.48c14.73,0,33.75,3.21,36.43,17.7q45.89,247.84,91.76,495.68C1451.4,1434.82,1452.16,1439.8,1449.77,1443.71Z" transform="translate(-160.24 -158.72)"/></svg>