<svg id="Layer_1" data-name="Layer 1" xmlns="http://www.w3.org/2000/svg" viewBox="0 0 363.17 363.17"><defs><style>.cls-1{fill:#fff;}</style></defs><rect class="cls-1" width="363.17" height="363.17" rx="49.93"/><path d="M167.47,220.24a5.16,5.16,0,0,0,2.56.46l14.66.1a4,4,0,0,0,2-.34c1.18-.68,1.36-2.27,1.38-3.62a96.38,96.38,0,0,0-4.52-30.48l-14.67,27.37q-1.15,2.15-2.3,4.29A1.77,1.77,0,0,0,167.47,220.24Z" transform="translate(-34.42 -34.42)"/><path d="M279.62,326.08c-2.9-1.57-6-3.19-9.29-3.11-3,.07-5.78,1.55-8.43,3L130.27,397.58H347.65a49.75,49.75,0,0,0,35.86-15.2Z" transform="translate(-34.42 -34.42)"/><path d="M378.12,240.6c-2.22,2.33-4.62,5.41-3.49,8.43q11.76,31.47,22.95,63.16v-92Z" transform="translate(-34.42 -34.42)"/><path d="M326.1,116c.9,2.25,1.92,4.64,3.94,6s4.37,1.31,6.66,1.32l60.88.21V84.35a49.92,49.92,0,0,0-49.93-49.93H293.32Z" transform="translate(-34.42 -34.42)"/><path d="M124.54,370l34.17-84.79c1.91-4.73,5.79-10.45,10.61-8.8,5.14,1.76,4.16,9.27,2.16,14.32q-17.29,43.74-34.61,87.48L258,312.2c6.22-3.39,13.84-6.8,20-3.33q56.49,31.77,113.77,62.07a49.62,49.62,0,0,0,5.39-17.25L360.73,250c-.84-2.38-1.68-4.87-1.29-7.36.48-3,2.72-5.48,4.86-7.71l33.28-34.71V137.77l-69.65,0c-2.33,0-4.82,0-6.77-1.32s-3.1-3.77-4-6.06q-19.36-48-38.74-95.93h-16.7Q237,89.19,212.33,144c-3.92,2.05-8.85-1.69-9.71-6s1-8.7,2.81-12.73l40.86-90.79H84.35A49.92,49.92,0,0,0,34.42,84.35V225.7a405.75,405.75,0,0,0,45.52-32c6.16-5,12.45-10.58,14.77-18.16C95.78,172,95.84,168,93.64,165s-6.11-4-9.62-3.29a16,16,0,0,0-8.87,5.61c-1.84,2.15-3.37,4.69-5.81,6.13-2.69,1.59-6,1.54-9.12,1.45l-17.33-.49c-1.51,0-3.48-.49-3.6-2a3,3,0,0,1,.18-1.11C43.4,158.48,54.55,148.6,67.19,144s26.62-4.46,39.86-2a34.73,34.73,0,0,1,10.4,3.26c10.48,5.72,13.83,20,10.33,31.41s-12.24,20.41-21.3,28.19a223.21,223.21,0,0,1-40.91,27.89c-.72.95,1,1.85,2.17,1.85H112c3.26,0,4.15,4.72,2.91,7.74s-3.52,6-2.73,9.18a3.84,3.84,0,0,1-2.3,4.08,11.26,11.26,0,0,1-5,.75H34.42v91.35a49.92,49.92,0,0,0,49.93,49.93h29.86C117.19,388.22,120.86,379.08,124.54,370ZM228.2,252.89,245,172.4c.7-3.35,2.32-7.5,5.75-7.5l32.28,0a4.22,4.22,0,0,1,2.29.43c1.12.71,1.32,2.22,1.41,3.53l3.69,53.49,23.82-54.31c1.23-2.81,5-3.22,8.05-3.21l30.43.13a3.27,3.27,0,0,1,2.18.53c.87.75.71,2.12.47,3.24q-8.85,42-17.69,84.06a4.55,4.55,0,0,1-1.2,2.63,4.47,4.47,0,0,1-2.79.75q-8.22.33-16.46,0c-2.12-.09-5-1.14-4.51-3.2l13.83-59.15c.46-2,.87-4.25-.37-5.85q-14.79,30.42-29.6,60.83c-1.39,2.86-3,6-6,7.09a12.7,12.7,0,0,1-4.47.56l-9.81,0c-3.46,0-8.13-1.13-8-4.59a283.63,283.63,0,0,0-4.78-61.49q-5.44,31.13-12.68,61.9a5.56,5.56,0,0,1-1.28,2.85,5.46,5.46,0,0,1-3.63,1.09,110.83,110.83,0,0,1-15.46-.33,2.78,2.78,0,0,1-2.15-.87A2.84,2.84,0,0,1,228.2,252.89Zm-56.92-82.73c1.49-2.45,3.47-5.2,6.34-5.21l22.57-.09c2.52,0,5.78.55,6.24,3l15.72,84.88a3.29,3.29,0,0,1-.14,2.3c-.55.9-1.79,1-2.84,1.07q-9.58.32-19.16.12c-2.6-.06-5.54-.3-7.17-2.32-1.83-2.27-1.11-5.55-.92-8.46s-1.11-6.64-4-6.66l-28.76-.23c-3.5,0-6.13,3.19-7.61,6.36s-2.48,6.76-5.12,9c-3.33,2.88-8.21,2.85-12.61,2.65-4.62-.2-9.31-.41-13.68-1.93Q145.7,212.45,171.28,170.16Z" transform="translate(-34.42 -34.42)"/></svg>